HIERARCHY
ROOT Hips
{
	OFFSET 0.00000 0.00000 0.00000
	CHANNELS 6 Xposition Yposition Zposition Zrotation Yrotation Xrotation 
	JOINT LHipJoint
	{
		OFFSET 0 0 0
		CHANNELS 3 Zrotation Yrotation Xrotation
		JOINT LeftUpLeg
		{
			OFFSET 1.55766 -1.60504 1.11378
			CHANNELS 3 Zrotation Yrotation Xrotation
			JOINT LeftLeg
			{
				OFFSET 2.29047 -6.29302 0.00000
				CHANNELS 3 Zrotation Yrotation Xrotation
				JOINT LeftFoot
				{
					OFFSET 2.52265 -6.93093 0.00000
					CHANNELS 3 Zrotation Yrotation Xrotation
					JOINT LeftToeBase
					{
						OFFSET 0.17633 -0.48446 2.02656
						CHANNELS 3 Zrotation Yrotation Xrotation
						End Site
						{
							OFFSET 0.00000 -0.00000 1.04989
						}
					}
				}
			}
		}
	}
	JOINT RHipJoint
	{
		OFFSET 0 0 0
		CHANNELS 3 Zrotation Yrotation Xrotation
		JOINT RightUpLeg
		{
			OFFSET -1.48599 -1.60504 1.11378
			CHANNELS 3 Zrotation Yrotation Xrotation
			JOINT RightLeg
			{
				OFFSET -2.27280 -6.24448 0.00000
				CHANNELS 3 Zrotation Yrotation Xrotation
				JOINT RightFoot
				{
					OFFSET -2.50834 -6.89161 0.00000
					CHANNELS 3 Zrotation Yrotation Xrotation
					JOINT RightToeBase
					{
						OFFSET -0.26967 -0.74090 2.08741
						CHANNELS 3 Zrotation Yrotation Xrotation
						End Site
						{
							OFFSET -0.00000 -0.00000 1.10614
						}
					}
				}
			}
		}
	}
	JOINT LowerBack
	{
		OFFSET 0 0 0
		CHANNELS 3 Zrotation Yrotation Xrotation
		JOINT Spine
		{
			OFFSET 0.06481 2.02437 -0.08472
			CHANNELS 3 Zrotation Yrotation Xrotation
			JOINT Spine1
			{
				OFFSET 0.00015 1.96711 0.18069
				CHANNELS 3 Zrotation Yrotation Xrotation
				JOINT Neck
				{
					OFFSET 0 0 0
					CHANNELS 3 Zrotation Yrotation Xrotation
					JOINT Neck1
					{
						OFFSET -0.29961 1.68293 -0.13041
						CHANNELS 3 Zrotation Yrotation Xrotation
						JOINT Head
						{
							OFFSET 0.59697 1.61501 -0.14669
							CHANNELS 3 Zrotation Yrotation Xrotation
							End Site
							{
								OFFSET 0.22973 1.74906 -0.10148
							}
						}
					}
				}
				JOINT LeftShoulder
				{
					OFFSET 0 0 0
					CHANNELS 3 Zrotation Yrotation Xrotation
					JOINT LeftArm
					{
						OFFSET 3.37968 1.02893 0.31147
						CHANNELS 3 Zrotation Yrotation Xrotation
						JOINT LeftForeArm
						{
							OFFSET 5.19807 -0.00000 -0.00000
							CHANNELS 3 Zrotation Yrotation Xrotation
							JOINT LeftHand
							{
								OFFSET 3.09370 -0.00000 -0.00000
								CHANNELS 3 Zrotation Yrotation Xrotation
								JOINT LeftFingerBase
								{
									OFFSET 0 0 0
									CHANNELS 3 Zrotation Yrotation Xrotation
									JOINT LeftHandIndex1
									{
										OFFSET 0.67263 -0.00000 -0.00000
										CHANNELS 3 Zrotation Yrotation Xrotation
										End Site
										{
											OFFSET 0.54229 -0.00000 -0.00000
										}
									}
								}
								JOINT LThumb
								{
									OFFSET 0 0 0
									CHANNELS 3 Zrotation Yrotation Xrotation
									End Site
									{
										OFFSET 0.55057 -0.00000 0.55057
									}
								}
							}
						}
					}
				}
				JOINT RightShoulder
				{
					OFFSET 0 0 0
					CHANNELS 3 Zrotation Yrotation Xrotation
					JOINT RightArm
					{
						OFFSET -3.38254 0.96355 -0.16120
						CHANNELS 3 Zrotation Yrotation Xrotation
						JOINT RightForeArm
						{
							OFFSET -5.45222 -0.00000 -0.00000
							CHANNELS 3 Zrotation Yrotation Xrotation
							JOINT RightHand
							{
								OFFSET -3.01284 -0.00000 -0.00000
								CHANNELS 3 Zrotation Yrotation Xrotation
								JOINT RightFingerBase
								{
									OFFSET 0 0 0
									CHANNELS 3 Zrotation Yrotation Xrotation
									JOINT RightHandIndex1
									{
										OFFSET -0.62230 -0.00000 -0.00000
										CHANNELS 3 Zrotation Yrotation Xrotation
										End Site
										{
											OFFSET -0.50171 -0.00000 -0.00000
										}
									}
								}
								JOINT RThumb
								{
									OFFSET 0 0 0
									CHANNELS 3 Zrotation Yrotation Xrotation
									End Site
									{
										OFFSET -0.50937 -0.00000 0.50937
									}
								}
							}
						}
					}
				}
			}
		}
	}
}
MOTION
Frames: 9
Frame Time: .0083333
-8.1610 16.8575 -27.6938 -186.3260 103.1030 -169.3850 0.0000 0.0000 0.0000 -19.9673 1.0852 -24.3381 3.0132 10.7163 31.3291 1.1594 1.7749 -21.0534 2.7043 -10.2003 -29.6279 0.0000 0.0000 0.0000 18.0149 33.1661 -24.6025 -4.2602 -12.4988 37.5203 1.1268 25.2833 -9.3433 -0.0439 -1.3521 3.7183 -1.3670 -2.6809 -1.9847 0.1987 -3.3825 -9.1338 1.1314 -1.4535 -8.3722 -27.7377 -15.6980 29.7805 44.2305 -25.8458 -17.5540 21.2673 -16.5325 1.1828 -0.0000 -0.0000 0.0000 -66.9483 26.4673 39.7251 20.6972 -31.4732 -5.8910 -0.0000 0.0000 -52.8636 39.2289 -17.2811 -13.6325 -7.1250 0.0000 -0.0000 7.2809 8.2424 -6.2136 -0.0000 -0.0000 0.0000 77.2145 -8.4974 53.8906 -52.3147 53.8874 -28.0336 0.0000 -0.0000 -35.6959 -49.2828 -29.0560 29.4358 7.1250 -0.0000 -0.0000 -28.5433 -68.3937 16.5303
-8.1632 16.8628 -27.7260 -185.9570 105.4820 -169.1340 0.0000 0.0000 0.0000 -19.4882 0.1132 -23.5406 3.0465 10.7699 31.5079 1.1578 1.4615 -20.9061 2.8509 -10.4496 -30.4453 0.0000 0.0000 0.0000 18.4772 32.3008 -24.5631 -4.2122 -12.4375 37.2979 1.2429 25.7522 -8.8757 -0.0667 -1.6668 4.5856 -1.3898 -2.4152 -1.9613 0.0457 -3.0412 -9.1778 0.9688 -1.2903 -8.4509 -27.5579 -15.7349 30.2780 44.0321 -25.9493 -17.5369 21.1965 -16.6148 1.0659 0.0000 0.0000 0.0000 -66.5844 27.2340 40.5797 22.0271 -33.0077 -6.6006 -0.0000 0.0000 -54.3746 38.3965 -17.5569 -13.4446 -7.1250 0.0000 -0.0000 6.7063 8.1191 -5.7324 0.0000 0.0000 0.0000 77.9171 -8.3209 54.5928 -52.3553 53.9024 -28.0664 0.0000 -0.0000 -34.6851 -47.7149 -29.5080 28.4392 7.1250 -0.0000 -0.0000 -25.7204 -68.4236 14.8266
-8.1642 16.8669 -27.7596 -185.5380 107.8080 -168.8370 0.0000 0.0000 0.0000 -19.0429 -0.8841 -22.7347 3.0765 10.8179 31.6681 1.1593 0.9040 -20.6943 3.0506 -10.7764 -31.5296 0.0000 0.0000 0.0000 18.8500 31.4004 -24.5643 -4.1672 -12.3796 37.0885 1.3694 26.2846 -8.4148 -0.0915 -1.9509 5.3699 -1.4785 -2.2567 -1.9097 0.0207 -2.8398 -9.2203 0.9850 -1.1864 -8.5300 -27.6841 -15.6444 30.5448 43.8132 -26.0095 -17.3649 21.1278 -16.6400 1.0594 -0.0000 -0.0000 0.0000 -66.6965 28.0975 40.8608 23.4659 -34.5943 -7.4011 -0.0000 0.0000 -55.9515 37.4908 -17.8439 -13.2272 -7.1250 0.0000 -0.0000 6.0840 7.9991 -5.2084 -0.0000 -0.0000 0.0000 78.4033 -8.0493 55.6925 -52.4733 53.9456 -28.1617 0.0000 -0.0000 -33.7731 -46.2731 -29.9019 27.5276 7.1250 -0.0000 -0.0000 -23.1534 -68.4235 13.2836
-8.1638 16.8699 -27.7931 -185.0510 110.0870 -168.4720 0.0000 0.0000 0.0000 -18.6584 -1.8676 -21.9472 3.1014 10.8574 31.8003 1.1605 0.1443 -20.4249 3.3215 -11.1981 -32.9510 0.0000 0.0000 0.0000 19.1173 30.5073 -24.6123 -4.1272 -12.3277 36.9015 1.5045 26.8844 -7.9928 -0.1133 -2.1703 5.9766 -1.6263 -2.1749 -1.8472 0.0821 -2.7396 -9.2442 1.1300 -1.1253 -8.5860 -28.0213 -15.4898 30.5502 43.5730 -26.0573 -17.0708 21.0280 -16.6249 1.1543 -0.0000 0.0000 0.0000 -67.2059 28.9826 40.6574 25.0038 -36.2079 -8.2921 -0.0000 0.0000 -57.5239 36.5521 -18.1433 -12.9995 -7.1250 0.0000 -0.0000 5.4394 7.8705 -4.6649 -0.0000 0.0000 0.0000 78.7441 -7.6775 57.0778 -52.6732 54.0184 -28.3235 0.0000 -0.0000 -33.0374 -44.9692 -30.2158 26.6894 7.1250 -0.0000 -0.0000 -20.8527 -68.3727 11.8942
-8.1616 16.8724 -27.8260 -184.5310 112.3440 -168.0510 0.0000 0.0000 0.0000 -18.3397 -2.8343 -21.2041 3.1212 10.8887 31.9053 1.1594 -0.7624 -20.1210 3.6525 -11.6830 -34.6195 0.0000 0.0000 0.0000 19.2767 29.6591 -24.7199 -4.0913 -12.2810 36.7332 1.6388 27.5000 -7.6340 -0.1276 -2.3023 6.3418 -1.7648 -2.0446 -1.8026 0.0664 -2.5773 -9.2863 1.1848 -1.0365 -8.6585 -28.2728 -15.3850 30.5950 43.3658 -26.1317 -16.8050 20.9313 -16.6339 1.2393 -0.0000 0.0000 0.0000 -67.6433 29.8120 40.4866 26.6485 -37.8419 -9.2827 -0.0000 0.0000 -59.0549 35.6237 -18.4385 -12.7697 -7.1250 0.0000 -0.0000 4.8029 7.7429 -4.1270 -0.0000 0.0000 0.0000 79.2484 -7.4237 58.3454 -52.9739 54.1267 -28.5669 0.0000 -0.0000 -32.4480 -43.8602 -30.3563 25.9039 7.1250 -0.0000 -0.0000 -18.9061 -68.1848 10.6723
-8.1577 16.8740 -27.8565 -183.9460 114.5990 -167.5410 0.0000 0.0000 0.0000 -18.1139 -3.7541 -20.5244 3.1358 10.9117 31.9826 1.1562 -1.7816 -19.8124 4.0358 -12.2079 -36.4716 0.0000 0.0000 0.0000 19.3249 28.8557 -24.8890 -4.0594 -12.2391 36.5830 1.7659 28.1081 -7.3650 -0.1299 -2.3233 6.3999 -1.9527 -1.8708 -1.7978 -0.0035 -2.3597 -9.3375 1.2053 -0.9184 -8.7213 -28.4600 -15.3276 30.6432 43.1686 -26.2326 -16.5774 20.8220 -16.6601 1.3156 0.0000 0.0000 0.0000 -68.0695 30.5638 40.2952 28.3657 -39.4507 -10.3552 -0.0000 0.0000 -60.4249 34.7255 -18.7383 -12.5523 -7.1250 0.0000 -0.0000 4.1859 7.6015 -3.6053 0.0000 0.0000 0.0000 79.8652 -7.2543 59.4960 -53.3691 54.2671 -28.8874 0.0000 -0.0000 -32.0303 -42.8736 -30.3578 25.1365 7.1250 -0.0000 -0.0000 -17.2029 -67.8775 9.5686
-8.1529 16.8745 -27.8821 -183.4400 116.8930 -167.0660 0.0000 0.0000 0.0000 -17.9187 -4.5911 -19.9260 3.1457 10.9272 32.0349 1.1509 -2.9045 -19.5206 4.4174 -12.6960 -38.2408 0.0000 0.0000 0.0000 19.3401 28.1627 -25.1004 -4.0302 -12.2004 36.4447 1.8767 28.6681 -7.2049 -0.1182 -2.2168 6.1052 -2.2047 -1.6849 -1.8579 -0.0367 -2.1237 -9.3707 1.2967 -0.7857 -8.7242 -28.6967 -15.2946 30.5115 42.9541 -26.3620 -16.3076 20.6635 -16.6808 1.4476 0.0000 -0.0000 0.0000 -68.6807 31.2306 39.8830 30.1255 -41.0007 -11.4919 -0.0000 0.0000 -61.5427 33.8631 -19.0458 -12.3514 -7.1250 0.0000 -0.0000 3.5914 7.4418 -3.1023 0.0000 -0.0000 0.0000 80.4751 -7.0693 60.6470 -53.8387 54.4311 -29.2691 0.0000 -0.0000 -31.7875 -41.9689 -30.1644 24.3203 7.1250 -0.0000 -0.0000 -15.6818 -67.3764 8.5274
-8.1480 16.8740 -27.9032 -182.9840 119.2000 -166.5960 0.0000 0.0000 0.0000 -17.7625 -5.3724 -19.4102 3.1511 10.9358 32.0636 1.1415 -4.0861 -19.2505 4.7682 -13.1179 -39.8114 0.0000 0.0000 0.0000 19.3214 27.5605 -25.3598 -4.0033 -12.1649 36.3177 1.9590 29.1431 -7.1952 -0.0924 -1.9601 5.3954 -2.5170 -1.4658 -1.9834 -0.0706 -1.8418 -9.4058 1.4170 -0.6258 -8.6934 -28.9072 -15.2910 30.3409 42.7357 -26.5007 -16.0750 20.4901 -16.7030 1.5738 -0.0000 0.0000 0.0000 -69.3481 31.8009 39.4092 31.9009 -42.4680 -12.6738 -0.0000 0.0000 -62.3899 33.0462 -19.3587 -12.1693 -7.1250 0.0000 -0.0000 3.0263 7.2651 -2.6231 -0.0000 0.0000 0.0000 81.1314 -6.9293 61.6911 -54.3777 54.6154 -29.7080 0.0000 -0.0000 -31.6976 -41.0470 -29.8695 23.4437 7.1250 -0.0000 -0.0000 -14.1958 -66.7570 7.5050
-8.1445 16.8716 -27.9157 -182.5920 121.5430 -166.1850 0.0000 0.0000 0.0000 -17.6346 -5.9707 -18.9514 3.1511 10.9358 32.0636 1.1305 -5.3323 -19.0330 5.0773 -13.4703 -41.1556 0.0000 0.0000 0.0000 19.3327 27.0951 -25.5761 -3.9787 -12.1320 36.2007 1.9911 29.4542 -7.3909 -0.0569 -1.5389 4.2331 -2.9396 -1.2015 -2.1592 -0.1099 -1.4994 -9.4315 1.5897 -0.4280 -8.6271 -29.0493 -15.3127 30.1701 42.5139 -26.6305 -15.8796 20.3112 -16.7225 1.6739 -0.0000 -0.0000 0.0000 -69.9967 32.2703 38.9474 33.6660 -43.8358 -13.8812 -0.0000 0.0000 -62.9862 32.2729 -19.6695 -12.0004 -7.1250 0.0000 -0.0000 2.4905 7.0810 -2.1666 -0.0000 -0.0000 0.0000 81.8684 -6.8516 62.5822 -54.9594 54.8099 -30.1828 0.0000 -0.0000 -31.7316 -40.0408 -29.4831 22.4688 7.1250 -0.0000 -0.0000 -12.6530 -66.0122 6.4616
